{
	"asset":{
		"generator":"Khronos glTF Blender I/O v4.3.47",
		"version":"2.0"
	},
	"scene":0,
	"scenes":[
		{
			"name":"Scene",
			"nodes":[
				0
			]
		}
	],
	"nodes":[
		{
			"mesh":0,
			"name":"Body.003",
			"scale":[
				0.5,
				0.6666666865348816,
				0.5
			],
			"translation":[
				0,
				-0.24414300918579102,
				0
			]
		}
	],
	"animations":[
		{
			"channels":[
				{
					"sampler":0,
					"target":{
						"node":0,
						"path":"translation"
					}
				},
				{
					"sampler":1,
					"target":{
						"node":0,
						"path":"rotation"
					}
				},
				{
					"sampler":2,
					"target":{
						"node":0,
						"path":"scale"
					}
				}
			],
			"name":"Body.003Action",
			"samplers":[
				{
					"input":4,
					"interpolation":"LINEAR",
					"output":5
				},
				{
					"input":6,
					"interpolation":"STEP",
					"output":7
				},
				{
					"input":6,
					"interpolation":"STEP",
					"output":8
				}
			]
		}
	],
	"materials":[
		{
			"doubleSided":true,
			"name":"Texture",
			"pbrMetallicRoughness":{
				"baseColorTexture":{
					"index":0
				},
				"metallicFactor":0,
				"roughnessFactor":0.5
			}
		}
	],
	"meshes":[
		{
			"name":"Cylinder.005",
			"primitives":[
				{
					"attributes":{
						"POSITION":0,
						"NORMAL":1,
						"TEXCOORD_0":2
					},
					"indices":3,
					"material":0
				}
			]
		}
	],
	"textures":[
		{
			"sampler":0,
			"source":0
		}
	],
	"images":[
		{
			"mimeType":"image/png",
			"name":"AllColoursTexure",
			"uri":"textures/AllColoursTexure.png"
		}
	],
	"accessors":[
		{
			"bufferView":0,
			"componentType":5126,
			"count":6449,
			"max":[
				5.003227233886719,
				2.2412145137786865,
				5
			],
			"min":[
				-5.003227233886719,
				-1.5087854862213135,
				-5
			],
			"type":"VEC3"
		},
		{
			"bufferView":1,
			"componentType":5126,
			"count":6449,
			"type":"VEC3"
		},
		{
			"bufferView":2,
			"componentType":5126,
			"count":6449,
			"type":"VEC2"
		},
		{
			"bufferView":3,
			"componentType":5123,
			"count":11016,
			"type":"SCALAR"
		},
		{
			"bufferView":4,
			"componentType":5126,
			"count":60,
			"max":[
				2.5
			],
			"min":[
				0.041666666666666664
			],
			"type":"SCALAR"
		},
		{
			"bufferView":5,
			"componentType":5126,
			"count":60,
			"type":"VEC3"
		},
		{
			"bufferView":6,
			"componentType":5126,
			"count":2,
			"max":[
				2.5
			],
			"min":[
				0.041666666666666664
			],
			"type":"SCALAR"
		},
		{
			"bufferView":7,
			"componentType":5126,
			"count":2,
			"type":"VEC4"
		},
		{
			"bufferView":8,
			"componentType":5126,
			"count":2,
			"type":"VEC3"
		}
	],
	"bufferViews":[
		{
			"buffer":0,
			"byteLength":77388,
			"byteOffset":0,
			"target":34962
		},
		{
			"buffer":0,
			"byteLength":77388,
			"byteOffset":77388,
			"target":34962
		},
		{
			"buffer":0,
			"byteLength":51592,
			"byteOffset":154776,
			"target":34962
		},
		{
			"buffer":0,
			"byteLength":22032,
			"byteOffset":206368,
			"target":34963
		},
		{
			"buffer":0,
			"byteLength":240,
			"byteOffset":228400
		},
		{
			"buffer":0,
			"byteLength":720,
			"byteOffset":228640
		},
		{
			"buffer":0,
			"byteLength":8,
			"byteOffset":229360
		},
		{
			"buffer":0,
			"byteLength":32,
			"byteOffset":229368
		},
		{
			"buffer":0,
			"byteLength":24,
			"byteOffset":229400
		}
	],
	"samplers":[
		{
			"magFilter":9729,
			"minFilter":9987
		}
	],
	"buffers":[
		{
			"byteLength":229424,
			"uri":"scene.bin"
		}
	]
}
